<?xml version="1.0" encoding="utf-8"?>
<!-- Generator: Adobe Illustrator 19.2.0, SVG Export Plug-In . SVG Version: 6.00 Build 0)  -->
<svg version="1.1" id="Layer_1" xmlns="http://www.w3.org/2000/svg" xmlns:xlink="http://www.w3.org/1999/xlink" x="0px" y="0px"
	 viewBox="0 0 194.8 79.4" style="enable-background:new 0 0 194.8 79.4;" xml:space="preserve">
<style type="text/css">
	.st0{fill:#6FA22A;}
	.st1{fill:#FFFFFF;}
	.st2{fill:#FF9600;}
	.st3{fill:#F9B306;}
	.st4{fill:#999999;}
</style>
<g>
	<path class="st0" d="M70.7,13.4c0.2-1.8,0.6-3.3,1.3-4.5c0.7-1.3,1.6-2.2,2.8-2.9s2.9-1.1,4.9-1.1c2.1,0,3.7,0.4,4.9,1.1
		s2.2,1.7,2.8,2.9c0.7,1.3,1.1,2.8,1.3,4.5c0.2,1.8,0.3,3.7,0.3,5.7c0,2.1-0.1,4-0.3,5.8c-0.2,1.7-0.6,3.2-1.3,4.5
		c-0.7,1.3-1.6,2.2-2.8,2.9c-1.2,0.7-2.9,1-4.9,1c-2.1,0-3.7-0.3-4.9-1c-1.2-0.7-2.2-1.6-2.8-2.9c-0.7-1.3-1.1-2.7-1.3-4.5
		c-0.2-1.7-0.3-3.7-0.3-5.8C70.4,17.1,70.5,15.2,70.7,13.4z M76,23.9c0.1,1.3,0.3,2.3,0.5,3.1c0.3,0.8,0.7,1.4,1.2,1.8
		c0.5,0.4,1.2,0.6,2,0.6s1.5-0.2,2-0.6c0.5-0.4,0.9-1,1.2-1.8c0.3-0.8,0.4-1.9,0.5-3.1c0.1-1.3,0.1-2.9,0.1-4.7s0-3.4-0.1-4.7
		c-0.1-1.3-0.3-2.3-0.5-3.1c-0.3-0.8-0.7-1.4-1.2-1.8c-0.5-0.4-1.2-0.6-2-0.6s-1.5,0.2-2,0.6c-0.5,0.4-0.9,1-1.2,1.8
		c-0.3,0.8-0.4,1.9-0.5,3.1c-0.1,1.3-0.1,2.8-0.1,4.7S75.9,22.6,76,23.9z"/>
	<path class="st0" d="M102.5,5.5c2.3,0,4.1,0.6,5.4,1.7c1.3,1.2,1.9,2.9,1.9,5.3c0,1.8-0.4,3.3-1.1,4.5c-0.7,1.2-1.9,1.9-3.5,2.2
		v0.1c1.4,0.2,2.4,0.7,3,1.3c0.6,0.7,1,1.8,1.2,3.3c0.1,0.5,0.1,1.1,0.1,1.7c0,0.6,0.1,1.3,0.1,2c0.1,1.5,0.1,2.6,0.2,3.3
		c0.2,0.8,0.5,1.3,1,1.6v0.2h-6c-0.3-0.4-0.5-0.8-0.5-1.3s-0.1-1-0.2-1.6l-0.2-5.3c-0.1-1.1-0.3-1.9-0.8-2.5
		c-0.5-0.6-1.3-0.9-2.5-0.9h-3v11.6h-5.5V5.5H102.5z M100.1,17.5c1.3,0,2.4-0.3,3.1-0.9c0.7-0.6,1.1-1.7,1.1-3.2
		c0-2.5-1.3-3.8-3.8-3.8h-2.6v7.9H100.1z"/>
	<path class="st0" d="M125.8,5.5l7.2,27.4h-5.8l-1.3-5.8h-7.3l-1.3,5.8h-5.8l7.2-27.4H125.8z M125,22.6l-2.6-12.3h-0.1l-2.6,12.3
		H125z"/>
	<path class="st0" d="M148,24.2L148,24.2L148,5.5h5.1v27.4h-6.3l-6.8-19.2H140v19.2h-5.1V5.5h6.4L148,24.2z"/>
	<path class="st0" d="M168.9,12c-0.1-0.5-0.3-1-0.6-1.5c-0.3-0.4-0.6-0.8-1-1.1C167,9.2,166.5,9,166,9c-1.3,0-2.3,0.7-2.9,2.2
		c-0.6,1.5-0.9,3.9-0.9,7.4c0,1.6,0.1,3.1,0.2,4.4c0.1,1.3,0.3,2.5,0.6,3.4c0.3,0.9,0.7,1.6,1.2,2.1c0.5,0.5,1.1,0.7,1.9,0.7
		c0.3,0,0.7-0.1,1.1-0.3s0.8-0.4,1.1-0.8c0.3-0.4,0.6-0.8,0.9-1.4c0.2-0.5,0.3-1.2,0.3-1.9v-2.8h-3.6v-4.1h8.9v14.8h-4.1v-2.5h-0.1
		c-0.7,1.1-1.5,1.8-2.4,2.3c-0.9,0.4-2.1,0.7-3.4,0.7c-1.7,0-3.1-0.3-4.1-0.9c-1.1-0.6-1.9-1.5-2.5-2.7s-1-2.7-1.2-4.5
		c-0.2-1.8-0.3-3.9-0.3-6.3c0-2.3,0.1-4.3,0.4-6.1c0.3-1.7,0.8-3.2,1.5-4.4c0.7-1.2,1.7-2,2.8-2.6c1.2-0.6,2.6-0.9,4.4-0.9
		c3,0,5.2,0.7,6.5,2.2c1.3,1.5,2,3.6,2,6.4h-5.3C169.1,13.1,169,12.6,168.9,12z"/>
	<path class="st0" d="M193.6,10h-9.8v6.4h9.2V21h-9.2v7.4h10.2v4.5h-15.7V5.5h15.3V10z"/>
</g>
<g>
	<path class="st0" d="M81.9,44c-0.5-0.9-1.3-1.4-2.6-1.4c-0.7,0-1.3,0.2-1.7,0.6c-0.4,0.4-0.8,1-1.1,1.8c-0.3,0.8-0.4,1.9-0.5,3.3
		c-0.1,1.3-0.2,3-0.2,4.9c0,2.1,0.1,3.7,0.2,5s0.4,2.3,0.7,3c0.3,0.7,0.7,1.2,1.1,1.4c0.4,0.2,1,0.4,1.6,0.4c0.5,0,0.9-0.1,1.4-0.2
		c0.4-0.2,0.8-0.5,1.1-1c0.3-0.5,0.5-1.2,0.7-2.1c0.2-0.9,0.3-2.1,0.3-3.6h5.5c0,1.5-0.1,2.9-0.3,4.2c-0.2,1.3-0.7,2.5-1.3,3.5
		c-0.6,1-1.5,1.8-2.6,2.3s-2.6,0.8-4.4,0.8c-2.1,0-3.7-0.3-4.9-1c-1.2-0.7-2.2-1.6-2.8-2.9c-0.7-1.3-1.1-2.7-1.3-4.5
		c-0.2-1.7-0.3-3.7-0.3-5.8c0-2.1,0.1-4,0.3-5.7c0.2-1.8,0.6-3.3,1.3-4.5c0.7-1.3,1.6-2.2,2.8-2.9s2.9-1.1,4.9-1.1
		c2,0,3.5,0.3,4.7,1c1.1,0.6,2,1.5,2.6,2.4c0.6,1,0.9,2,1.1,3.2c0.1,1.1,0.2,2.2,0.2,3.2h-5.5C82.6,46.4,82.4,44.9,81.9,44z"/>
	<path class="st0" d="M91.3,47.1c0.2-1.8,0.6-3.3,1.3-4.5c0.7-1.3,1.6-2.2,2.8-2.9c1.2-0.7,2.9-1.1,4.9-1.1s3.7,0.4,4.9,1.1
		c1.2,0.7,2.2,1.7,2.8,2.9c0.7,1.3,1.1,2.8,1.3,4.5c0.2,1.8,0.3,3.7,0.3,5.7c0,2.1-0.1,4-0.3,5.8c-0.2,1.7-0.6,3.2-1.3,4.5
		c-0.7,1.3-1.6,2.2-2.8,2.9c-1.2,0.7-2.9,1-4.9,1s-3.7-0.3-4.9-1c-1.2-0.7-2.2-1.6-2.8-2.9c-0.7-1.3-1.1-2.7-1.3-4.5
		c-0.2-1.7-0.3-3.7-0.3-5.8C91,50.7,91.1,48.8,91.3,47.1z M96.6,57.5c0.1,1.3,0.3,2.3,0.5,3.1c0.3,0.8,0.7,1.4,1.2,1.8
		c0.5,0.4,1.2,0.6,2,0.6c0.8,0,1.5-0.2,2-0.6c0.5-0.4,0.9-1,1.2-1.8c0.3-0.8,0.4-1.9,0.5-3.1s0.1-2.9,0.1-4.7s0-3.4-0.1-4.7
		c-0.1-1.3-0.3-2.3-0.5-3.1s-0.7-1.4-1.2-1.8c-0.5-0.4-1.2-0.6-2-0.6c-0.8,0-1.5,0.2-2,0.6c-0.5,0.4-0.9,1-1.2,1.8s-0.4,1.9-0.5,3.1
		c-0.1,1.3-0.1,2.8-0.1,4.7S96.5,56.2,96.6,57.5z"/>
	<path class="st0" d="M123.1,39.1c2.3,0,4.1,0.6,5.4,1.7c1.3,1.2,1.9,2.9,1.9,5.3c0,1.8-0.4,3.3-1.1,4.5c-0.7,1.2-1.9,1.9-3.5,2.2
		V53c1.4,0.2,2.4,0.7,3,1.3c0.6,0.7,1,1.8,1.2,3.3c0.1,0.5,0.1,1.1,0.1,1.7c0,0.6,0.1,1.3,0.1,2c0.1,1.5,0.1,2.6,0.2,3.3
		c0.2,0.8,0.5,1.3,1,1.6v0.2h-6c-0.3-0.4-0.5-0.8-0.5-1.3c-0.1-0.5-0.1-1-0.2-1.6l-0.2-5.3c-0.1-1.1-0.3-1.9-0.8-2.5
		c-0.5-0.6-1.3-0.9-2.5-0.9h-3v11.6h-5.5V39.1H123.1z M120.7,51.1c1.3,0,2.4-0.3,3.1-0.9c0.7-0.6,1.1-1.7,1.1-3.2
		c0-2.5-1.3-3.8-3.8-3.8h-2.6v7.9H120.7z"/>
	<path class="st0" d="M147.2,57.9L147.2,57.9l0.1-18.8h5.1v27.4h-6.3l-6.8-19.2h-0.1v19.2h-5.1V39.1h6.4L147.2,57.9z"/>
	<path class="st0" d="M171.5,43.6h-9.8v6.4h9.2v4.5h-9.2V62h10.2v4.5h-15.7V39.1h15.3V43.6z"/>
	<path class="st0" d="M184.9,39.1c2.3,0,4.1,0.6,5.4,1.7c1.3,1.2,1.9,2.9,1.9,5.3c0,1.8-0.4,3.3-1.1,4.5c-0.7,1.2-1.9,1.9-3.5,2.2
		V53c1.4,0.2,2.4,0.7,3,1.3c0.6,0.7,1,1.8,1.2,3.3c0.1,0.5,0.1,1.1,0.1,1.7c0,0.6,0.1,1.3,0.1,2c0.1,1.5,0.1,2.6,0.2,3.3
		c0.2,0.8,0.5,1.3,1,1.6v0.2h-6c-0.3-0.4-0.5-0.8-0.5-1.3c-0.1-0.5-0.1-1-0.2-1.6l-0.2-5.3c-0.1-1.1-0.3-1.9-0.8-2.5
		c-0.5-0.6-1.3-0.9-2.5-0.9h-3v11.6h-5.5V39.1H184.9z M182.5,51.1c1.3,0,2.4-0.3,3.1-0.9c0.7-0.6,1.1-1.7,1.1-3.2
		c0-2.5-1.3-3.8-3.8-3.8h-2.6v7.9H182.5z"/>
</g>
<g>
	<g>
		<path class="st1" d="M58.8,8.7c-30.9,0-55.9,25-55.9,55.9h55.9V8.7z"/>
		<path class="st2" d="M61.7,67.5H0v-2.9C0,32.3,26.4,5.9,58.8,5.9h2.9V67.5z M5.8,61.8h50.1V11.7C28.9,13.1,7.2,34.8,5.8,61.8z"/>
	</g>
	<path class="st3" d="M11.1,57.1C14.4,36.5,30.6,20.2,51.2,17v40.1H11.1z"/>
	
		<rect x="36.4" y="24.2" transform="matrix(0.7496 -0.6618 0.6618 0.7496 -18.7477 36.4189)" class="st1" width="4.8" height="37.5"/>
</g>
<g>
	<polygon class="st4" points="192.3,78.6 0,78.1 0,77.6 192.3,78.1 	"/>
</g>
</svg>
