<?xml version="1.0" standalone="no"?>
<!DOCTYPE svg PUBLIC "-//W3C//DTD SVG 20010904//EN"
 "http://www.w3.org/TR/2001/REC-SVG-20010904/DTD/svg10.dtd">
<svg version="1.0" xmlns="http://www.w3.org/2000/svg"
 width="500.000000pt" height="500.000000pt" viewBox="0 0 500.000000 500.000000"
 preserveAspectRatio="xMidYMid meet">
<metadata>
Created by potrace 1.11, written by Peter Selinger 2001-2013
</metadata>
<g transform="translate(0.000000,500.000000) scale(0.100000,-0.100000)"
fill="#000000" stroke="none">
<path d="M4338 4785 c-2 -1 -48 -6 -103 -9 -99 -7 -114 -9 -210 -21 -27 -4
-62 -9 -77 -11 -26 -3 -213 -34 -233 -39 -18 -4 -90 -19 -95 -20 -331 -67
-846 -264 -1158 -442 -124 -70 -340 -206 -407 -255 -398 -295 -699 -587 -955
-927 -14 -18 -34 -45 -46 -59 -159 -204 -399 -630 -511 -907 -24 -60 -48 -119
-53 -130 -24 -53 -104 -310 -140 -447 -37 -145 -43 -169 -55 -235 -3 -16 -7
-37 -10 -49 -3 -12 -7 -39 -10 -60 -3 -21 -10 -61 -15 -89 -8 -47 -11 -72 -25
-200 -3 -27 -8 -70 -11 -95 -2 -25 -7 -165 -11 -312 l-6 -268 2292 0 2291 0 0
2291 0 2290 -225 -2 c-123 -1 -226 -3 -227 -4z"/>
</g>
</svg>
